<svg width="186" height="110" viewBox="0 0 186 110" fill="none" xmlns="http://www.w3.org/2000/svg">
<path d="M2.97572 31.5258C6.20853 40.4877 11.0131 50.2103 17.7719 55.876C32.7606 68.4429 35.9728 72.5712 41.5059 97.7051C47.039 122.839 72.7342 101.654 72.7342 101.654C72.7342 101.654 80.4072 96.4465 93.2697 103.728C96.8296 105.451 100.798 106.136 104.725 105.703C115.432 105.164 135.562 100.69 151.964 77.0591C175.52 43.1292 189.26 33.0748 185.335 2.91368C181.41 -27.2474 176.947 -42.8662 143.043 -48.0732C119.93 -51.6206 100.886 -63.9363 91.0932 -71.4115C90.4287 -71.9209 89.7505 -72.4026 89.0586 -72.8613C85.034 -75.5514 80.5188 -77.4113 75.7746 -78.3332C71.0303 -79.2551 66.1514 -79.2207 61.4205 -78.232C52.3589 -76.1997 43.9488 -71.9129 36.9603 -65.7642C33.7111 -63.0006 30.7502 -59.9114 28.1233 -56.5441C23.6363 -50.7966 20.1198 -44.3456 17.7147 -37.4494C14.3367 -27.4938 10.3046 -17.7752 5.6449 -8.35783C3.10104 -3.50915 1.37158 1.72934 0.526488 7.14568C-0.666321 15.3513 0.175033 23.7263 2.97572 31.5258Z" fill="#828A9E"/>
<path d="M58.103 91.3639C58.8472 91.3635 59.5618 91.0708 60.0946 90.5481C60.6274 90.0254 60.9363 89.3141 60.9554 88.5656C61.4664 71.3379 51.7909 62.9339 51.3762 62.5858C50.7953 62.1255 50.0595 61.9099 49.3238 61.9845C48.5881 62.059 47.9098 62.4178 47.4318 62.9853C46.9538 63.5529 46.7133 64.2849 46.761 65.0272C46.8087 65.7696 47.1408 66.4644 47.6874 66.9653C48.0403 67.2719 55.6743 74.0901 55.2482 88.3881C55.2369 88.7651 55.2995 89.1407 55.4325 89.4934C55.5655 89.846 55.7662 90.1689 56.0232 90.4435C56.2802 90.7181 56.5885 90.9391 56.9304 91.0939C57.2723 91.2486 57.6411 91.3341 58.0159 91.3454L58.103 91.3639Z" fill="#62667C"/>
<path d="M19.0779 21.469C19.1905 21.4687 19.3029 21.4617 19.4147 21.4482C20.1662 21.3593 20.8519 20.9738 21.321 20.3765C21.7902 19.7791 22.0044 19.0188 21.9166 18.2627C20.1868 3.45528 24.957 -3.88388 25.0051 -3.95533C25.4356 -4.58195 25.6011 -5.35495 25.4651 -6.1043C25.3291 -6.85365 24.9028 -7.51795 24.2799 -7.95108C23.6571 -8.38421 22.8887 -8.55067 22.1439 -8.41385C21.3991 -8.27704 20.7387 -7.84815 20.3082 -7.22154C20.0585 -6.86196 14.239 1.76801 16.246 18.9335C16.3284 19.6313 16.662 20.2746 17.1838 20.7418C17.7055 21.209 18.3794 21.4677 19.0779 21.469Z" fill="#62667C"/>
<path d="M132.096 21.469C132.526 21.4692 132.951 21.3716 133.338 21.1834C133.726 20.9952 134.067 20.7213 134.334 20.3822C134.602 20.0431 134.79 19.6475 134.884 19.225C134.979 18.8026 134.977 18.3641 134.879 17.9423C131.864 4.93744 119.877 0.78611 113.959 0.408088C113.203 0.35857 112.459 0.613066 111.89 1.11559C111.321 1.6181 110.973 2.32749 110.924 3.08768C110.875 3.84786 111.128 4.59658 111.627 5.16913C112.127 5.74168 112.832 6.09116 113.588 6.14067C114.142 6.17986 126.526 7.2125 129.316 19.247C129.463 19.8784 129.817 20.4416 130.321 20.845C130.826 21.2483 131.451 21.4683 132.096 21.469Z" fill="#62667C"/>
<path d="M162.316 29.6057C163.013 29.6066 163.687 29.3499 164.208 28.8842C173.538 20.57 172.117 6.76991 172.053 6.18674C171.97 5.42961 171.59 4.73689 170.999 4.26096C170.408 3.78503 169.653 3.56487 168.9 3.64893C168.148 3.73299 167.459 4.11437 166.986 4.70918C166.513 5.30399 166.294 6.0635 166.378 6.82062C166.389 6.93357 167.507 18.2696 160.421 24.5831C159.987 24.9696 159.68 25.4798 159.541 26.046C159.403 26.6122 159.438 27.2075 159.644 27.7527C159.85 28.2979 160.216 28.7673 160.693 29.0982C161.17 29.4292 161.736 29.6062 162.316 29.6057Z" fill="#62667C"/>
<path d="M99.0251 34.8727C104.281 34.8727 108.543 31.497 108.543 27.3329C108.543 23.1689 104.281 19.7932 99.0251 19.7932C93.7688 19.7932 89.5077 23.1689 89.5077 27.3329C89.5077 31.497 93.7688 34.8727 99.0251 34.8727Z" fill="#62667C"/>
<path d="M93.1475 71.0747C97.9267 66.7084 100.134 61.3215 98.0767 59.0427C96.0197 56.7639 90.4779 58.4562 85.6987 62.8225C80.9195 67.1888 78.7126 72.5757 80.7695 74.8545C82.8265 77.1333 88.3683 75.441 93.1475 71.0747Z" fill="#62667C"/>
<path d="M140.315 64.9842C142.784 59.9439 141.555 54.2568 137.571 52.2818C133.587 50.3068 128.356 52.7918 125.888 57.8321C123.419 62.8725 124.647 68.5595 128.631 70.5345C132.615 72.5095 137.846 70.0246 140.315 64.9842Z" fill="#62667C"/>
<path d="M54.2122 49.3634C58.5788 44.9703 57.5054 36.768 51.8148 31.0429C46.1242 25.3178 37.9712 24.238 33.6046 28.631C29.238 33.0241 30.3113 41.2264 36.0019 46.9515C41.6926 52.6766 49.8456 53.7564 54.2122 49.3634Z" fill="#62667C"/>
</svg>
