<svg width="186" height="110" viewBox="0 0 186 110" fill="none" xmlns="http://www.w3.org/2000/svg">
<path d="M2.97572 31.5258C6.20853 40.4877 11.0131 50.2103 17.7719 55.876C32.7606 68.4429 35.9728 72.5712 41.5059 97.7051C47.039 122.839 72.7342 101.654 72.7342 101.654C72.7342 101.654 80.4072 96.4465 93.2697 103.728C96.8296 105.451 100.798 106.136 104.725 105.703C115.432 105.164 135.562 100.69 151.964 77.0591C175.52 43.1292 189.26 33.0748 185.335 2.91368C181.41 -27.2474 176.947 -42.8662 143.043 -48.0732C119.93 -51.6206 100.886 -63.9363 91.0932 -71.4115C90.4287 -71.9209 89.7505 -72.4026 89.0586 -72.8613C85.034 -75.5514 80.5188 -77.4113 75.7746 -78.3332C71.0303 -79.2551 66.1514 -79.2207 61.4205 -78.232C52.3589 -76.1997 43.9488 -71.9129 36.9603 -65.7642C33.7111 -63.0006 30.7502 -59.9114 28.1233 -56.5441C23.6363 -50.7966 20.1198 -44.3456 17.7147 -37.4494C14.3367 -27.4938 10.3046 -17.7752 5.6449 -8.35783C3.10104 -3.50915 1.37158 1.72934 0.526488 7.14568C-0.666321 15.3513 0.175033 23.7263 2.97572 31.5258Z" fill="#828A9E"/>
</svg>
